<svg version="1" xmlns="http://www.w3.org/2000/svg" width="1333.333" height="1333.333" viewBox="0 0 1000.000000 1000.000000"><path d="M499 157.1c-65.6 1.8-116.7 8-192.6 23l-36.2 7.2-34.1 59.8c-18.8 32.9-35.3 61.8-36.7 64.3l-2.5 4.5 2 2c1.1 1.1 3.3 2.4 4.8 2.7 3.1.8 19.4-1.6 54.8-8.2 13.2-2.5 27-4.8 30.8-5.1l6.7-.6v3.6c0 2-.9 13.4-2 25.4-1 12-3.1 38.4-4.5 58.8-1.4 20.3-4.1 56.3-6 80-3.9 47.6-10.6 141.7-13 182-1.9 32.1-3.7 54-7.5 94-1.7 17-3.5 41.8-4.1 55-1.3 28.7-1 30.7 6.1 34.3 9 4.5 15.4 3.3 52.5-10.3 15.5-5.7 46.1-16.7 68-24.5 22-7.8 41.7-15.1 43.7-16.1 3.2-1.6 4-2.7 5.2-7.2.8-2.9 6.1-58.6 12.3-128.4 5.9-67.8 11.1-122.9 11.5-122.5.6.6 74.1 155.2 122 256.7 10.2 21.6 18.6 37.9 20.9 40.8 8.8 11.2 17.2 14.8 28.8 12.7 4.6-.8 14-5.1 37.3-17 17.2-8.7 41.2-20.2 53.3-25.5 25.9-11.4 59-26.7 72.8-33.6l9.7-4.9V742.3l-13.1-1.2c-15.3-1.4-22.4-3.7-27.8-8.9-9.1-8.9-48-72.8-88.6-145.7-9.2-16.5-19.2-34.1-22.2-39-7.7-12.7-21.2-35.5-22.9-38.7l-1.4-2.7 14.2-7c62.3-30.6 107.3-74.6 124.2-121.6 14.1-39.2 9.6-94.2-10.4-128.5-16.5-28.3-42.1-50.5-75.4-65.3-30.1-13.5-65.8-21.4-113.2-25.1-25.6-2.1-38.6-2.3-67.4-1.5zm50.5 125.5c33.3 6.3 50.8 27.5 50.8 61.4 0 15.9-3 28.3-10.5 43.4-22.8 45.6-76 83.9-120.5 86.8-4.1.3-6.3 0-6.3-.6.1-4 17.8-187.7 18.1-188 .7-.7 19.8-3.8 28.4-4.7 10.4-1 29.9-.1 40 1.7z"/></svg>